<svg id="Layer_1" data-name="Layer 1" xmlns="http://www.w3.org/2000/svg" viewBox="0 0 858.704 531.585">
  <title>AB-LOGO</title>
  <g>
    <path d="M548.027,453.484v98.751L71.3,737.48V651.667l116.458-44.948,275.708-106.4L71.3,349.965V264.835ZM462.9,500.476,261.308,422.837" transform="translate(-71.296 -208)"/>
    <path d="M567.684,739.585V262.854H777.446c85.131,0,142.338,51.76,142.338,124.631,0,56.527-32.69,96.708-79,109.648C892.542,503.944,930,544.807,930,611.549c0,74.914-62.657,128.036-145.743,128.036ZM765.187,462.4c46.311,0,72.872-23.156,72.872-63.337,0-40.863-26.561-63.337-72.872-63.337H649.409V462.4Zm5.449,204.313c47.673,0,77.639-23.156,77.639-66.742s-29.967-66.742-77.639-66.742H649.409V666.713Z" transform="translate(-71.296 -208)"/>
  </g>
</svg>
